<svg width="32" height="32" viewBox="0 0 32 32" fill="none" xmlns="http://www.w3.org/2000/svg">
<path fill-rule="evenodd" clip-rule="evenodd" d="M14.6666 5.33332C9.51197 5.33332 5.33329 9.512 5.33329 14.6667C5.33329 19.8213 9.51197 24 14.6666 24C19.8213 24 24 19.8213 24 14.6667C24 9.512 19.8213 5.33332 14.6666 5.33332ZM2.66663 14.6667C2.66663 8.03924 8.03921 2.66666 14.6666 2.66666C21.294 2.66666 26.6666 8.03924 26.6666 14.6667C26.6666 21.2941 21.294 26.6667 14.6666 26.6667C8.03921 26.6667 2.66663 21.2941 2.66663 14.6667Z" fill="currentColor"/>
<path d="M14.6666 9.33334V20" stroke="currentColor" stroke-width="2" stroke-linecap="round" stroke-linejoin="round"/>
<path d="M9.33325 14.6667H19.9999" stroke="currentColor" stroke-width="2" stroke-linecap="round" stroke-linejoin="round"/>
<path fill-rule="evenodd" clip-rule="evenodd" d="M21.2572 21.2572C21.7779 20.7365 22.6221 20.7365 23.1428 21.2572L28.9428 27.0572C29.4635 27.5779 29.4635 28.4221 28.9428 28.9428C28.4221 29.4635 27.5779 29.4635 27.0572 28.9428L21.2572 23.1428C20.7365 22.6221 20.7365 21.7779 21.2572 21.2572Z" fill="currentColor"/>
</svg>
