<svg width="17" height="17" viewBox="0 0 17 17" fill="none" xmlns="http://www.w3.org/2000/svg">
<path d="M15.7958 2.86424V6.86424H11.7958" stroke="currentColor" stroke-width="1.33333" stroke-linecap="round" stroke-linejoin="round"/>
<path d="M1.12921 13.5309V9.5309H5.12921" stroke="currentColor" stroke-width="1.33333" stroke-linecap="round" stroke-linejoin="round"/>
<path d="M2.80254 6.19757C3.14066 5.2421 3.7153 4.38784 4.47286 3.71452C5.23041 3.0412 6.14619 2.57075 7.13474 2.34708C8.12328 2.12341 9.15238 2.1538 10.126 2.43542C11.0996 2.71704 11.986 3.24072 12.7025 3.95757L15.7959 6.86424M1.12921 9.53091L4.22254 12.4376C4.93904 13.1544 5.82546 13.6781 6.79908 13.9597C7.77271 14.2413 8.80181 14.2717 9.79035 14.0481C10.7789 13.8244 11.6947 13.3539 12.4522 12.6806C13.2098 12.0073 13.7844 11.153 14.1225 10.1976" stroke="currentColor" stroke-width="1.33333" stroke-linecap="round" stroke-linejoin="round"/>
</svg>
